<?xml version="1.0" encoding="UTF-8"?>
<!DOCTYPE svg PUBLIC "-//W3C//DTD SVG 1.1//EN" "http://www.w3.org/Graphics/SVG/1.1/DTD/svg11.dtd">
<svg xmlns="http://www.w3.org/2000/svg" version="1.1" width="944px" height="711px" style="shape-rendering:geometricPrecision; text-rendering:geometricPrecision; image-rendering:optimizeQuality; fill-rule:evenodd; clip-rule:evenodd" xmlns:xlink="http://www.w3.org/1999/xlink">
<g><path style="opacity:0.997" fill="#36ba62" d="M 255.5,-0.5 C 256.5,-0.5 257.5,-0.5 258.5,-0.5C 329.101,194.301 400.101,388.968 471.5,583.5C 542.899,388.968 613.899,194.301 684.5,-0.5C 685.5,-0.5 686.5,-0.5 687.5,-0.5C 709.029,7.73613 730.696,15.9028 752.5,24C 718.002,117.327 684.002,210.827 650.5,304.5C 748.167,304.5 845.833,304.5 943.5,304.5C 943.5,328.167 943.5,351.833 943.5,375.5C 868.833,375.5 794.167,375.5 719.5,375.5C 719.5,406.833 719.5,438.167 719.5,469.5C 794.167,469.5 868.833,469.5 943.5,469.5C 943.5,549.833 943.5,630.167 943.5,710.5C 845.167,710.5 746.833,710.5 648.5,710.5C 648.5,686.833 648.5,663.167 648.5,639.5C 723.5,639.5 798.5,639.5 873.5,639.5C 873.5,606.5 873.5,573.5 873.5,540.5C 798.5,540.5 723.5,540.5 648.5,540.5C 648.667,463.499 648.5,386.499 648,309.5C 599.394,443.152 550.894,576.819 502.5,710.5C 481.833,710.5 461.167,710.5 440.5,710.5C 392.106,576.819 343.606,443.152 295,309.5C 294.5,443.166 294.333,576.833 294.5,710.5C 196.167,710.5 97.8333,710.5 -0.5,710.5C -0.5,576.167 -0.5,441.833 -0.5,307.5C 22.8333,307.5 46.1667,307.5 69.5,307.5C 69.5,418.167 69.5,528.833 69.5,639.5C 120.833,639.5 172.167,639.5 223.5,639.5C 223.5,529.167 223.5,418.833 223.5,308.5C 247.169,308.667 270.836,308.5 294.5,308C 259.833,213.333 225.167,118.667 190.5,24C 212.304,15.9028 233.971,7.73613 255.5,-0.5 Z"/></g>
<g><path style="opacity:0.99" fill="#36ba62" d="M 345.5,1.5 C 346.496,1.41423 347.329,1.74756 348,2.5C 388.894,115.284 430.061,227.95 471.5,340.5C 513.149,228.058 554.315,115.392 595,2.5C 595.414,2.04265 595.914,1.70931 596.5,1.5C 618.795,9.76506 641.128,17.9317 663.5,26C 609.592,172.989 556.092,320.156 503,467.5C 493.304,490.557 482.804,513.224 471.5,535.5C 460.469,512.769 449.969,489.769 440,466.5C 386.733,320.199 333.567,173.866 280.5,27.5C 281.189,25.6473 282.522,24.4807 284.5,24C 305.124,16.9623 325.458,9.46231 345.5,1.5 Z"/></g>
</svg>
